<?xml version="1.0" encoding="UTF-8" standalone="no"?>
<!-- Created with Inkscape (http://www.inkscape.org/) -->

<svg
   width="14.381501mm"
   height="7.5686522mm"
   viewBox="0 0 14.381501 7.5686522"
   version="1.1"
   id="svg5"
   inkscape:version="1.1.1 (3bf5ae0d25, 2021-09-20, custom)"
   sodipodi:docname="drawing.svg"
   xmlns:inkscape="http://www.inkscape.org/namespaces/inkscape"
   xmlns:sodipodi="http://sodipodi.sourceforge.net/DTD/sodipodi-0.dtd"
   xmlns="http://www.w3.org/2000/svg"
   xmlns:svg="http://www.w3.org/2000/svg">
  <sodipodi:namedview
     id="namedview7"
     pagecolor="#ffffff"
     bordercolor="#666666"
     borderopacity="1.0"
     inkscape:pageshadow="2"
     inkscape:pageopacity="0.0"
     inkscape:pagecheckerboard="0"
     inkscape:document-units="mm"
     showgrid="false"
     inkscape:zoom="8"
     inkscape:cx="18.9375"
     inkscape:cy="3.375"
     inkscape:window-width="1898"
     inkscape:window-height="1041"
     inkscape:window-x="1930"
     inkscape:window-y="10"
     inkscape:window-maximized="1"
     inkscape:current-layer="layer1"
     fit-margin-top="0"
     fit-margin-left="0"
     fit-margin-right="0"
     fit-margin-bottom="0" />
  <defs
     id="defs2" />
  <g
     inkscape:label="Layer 1"
     inkscape:groupmode="layer"
     id="layer1"
     transform="translate(-86.180138,-135.58241)">
    <g
       aria-label="لاتكس"
       id="text6128"
       style="font-size:5.64444px;line-height:1.25;font-family:Amiri;-inkscape-font-specification:Amiri;text-align:center;letter-spacing:0px;direction:rtl;text-anchor:middle;stroke-width:0.264583;fill:#ffffff">
      <path
         d="m 98.544472,140.86981 q -0.169333,0.16933 -0.400755,0.17497 -0.146756,0 -0.146756,-0.0564 0,-0.0621 0.135467,-0.13547 0.914399,-0.508 1.038577,-1.85702 0.06773,-0.69426 0.01693,-1.38289 -0.01693,-0.22013 0.01693,-0.27657 0.06209,-0.10725 0.09596,-0.16934 0.03387,-0.0621 0.04516,-0.079 0.02822,-0.0339 0.05644,-0.0282 0.03951,0.0113 0.04515,0.0395 0.08467,0.32738 0.169334,0.42333 0.08467,0.0903 0.0056,0.16934 l -0.158044,0.16369 q 0.01129,0.31608 -0.02822,0.68297 -0.03387,0.36125 -0.112889,0.77894 -0.186267,0.97648 -0.778933,1.55222 z"
         id="path6606"
         style="fill:#ffffff" />
      <path
         d="m 97.878438,140.83594 q 0.4064,0.0395 0.666044,0.0395 0.259644,-0.006 0.378177,-0.0452 -0.05644,-0.54752 -0.795866,-1.58045 -0.265288,-0.37253 -0.462844,-0.62089 -0.197555,-0.254 -0.327377,-0.37817 l -0.08467,0.14675 q -0.07338,0.0508 -0.135467,-0.0226 l -0.389466,-0.41768 q -0.08467,-0.096 -0.06773,-0.22014 l 0.07902,-0.49106 q 0.01129,-0.079 0.0508,-0.079 0.118533,-0.006 0.632177,0.61525 0.259644,0.31044 0.479778,0.6096 0.225777,0.29351 0.412044,0.57573 0.80151,1.2192 0.85231,1.96991 0.01693,0.31609 -0.163689,0.36689 -0.524932,0.13547 -1.151465,0.0339 -0.06209,-0.006 -0.07902,-0.0395 -0.1016,-0.24271 0.02822,-0.41204 0.04516,-0.0621 0.07902,-0.0508 z"
         id="path6608"
         style="fill:#ffffff" />
      <path
         d="m 95.569869,139.98363 0.158044,-0.34996 q 0.04516,-0.1016 0.1016,-0.006 0.112889,0.20884 0.135467,0.4572 0.02258,0.24271 -0.0508,0.53622 -0.135467,0.55316 -0.682977,0.55316 -0.05644,0 -0.118534,-0.28787 -0.02822,-0.14676 0.02822,-0.19756 0.03387,-0.0282 0.09031,-0.0226 0.333022,0.0169 0.502355,-0.18063 0.01129,-0.0113 0,-0.0395 -0.03387,-0.15804 -0.1524,-0.32737 -0.04516,-0.0621 -0.01129,-0.13547 z m 0.321733,-1.46755 q 0.01129,-0.0169 0.04516,-0.0113 0.112889,0.0395 0.208844,0.0959 0.1016,0.0565 0.191911,0.13547 0.02258,0.0226 0.0056,0.0508 l -0.270933,0.42898 q -0.01129,0.0169 -0.0508,-0.0113 -0.01693,-0.0169 -0.09595,-0.0621 -0.07902,-0.0508 -0.225778,-0.13547 l -0.214488,0.33302 q -0.01693,0.0282 -0.05644,-0.006 -0.02258,-0.0169 -0.118533,-0.079 -0.09596,-0.0621 -0.276578,-0.16934 -0.02258,-0.0169 -0.0056,-0.0339 l 0.276577,-0.41205 q 0.01129,-0.0169 0.04516,-0.0113 0.09596,0.0282 0.180622,0.079 0.08467,0.0452 0.158044,0.10724 z"
         id="path6610"
         style="fill:#ffffff" />
      <path
         d="m 91.884054,140.66096 c 0.0075,0 0.04704,0.006 0.118533,0.0169 0.03763,0.004 0.08466,0.008 0.141111,0.0113 h 0.214489 c 0.158045,0 0.338667,-0.0376 0.541866,-0.11288 0.199437,-0.0753 0.361245,-0.18627 0.485422,-0.33303 -0.09031,-0.34243 -0.479777,-0.67357 -1.168399,-0.99342 -0.07526,-0.0489 -0.122296,-0.17311 -0.141111,-0.37253 -0.01881,-0.22201 0,-0.37065 0.05644,-0.44591 0.43274,-0.61713 5.937621,-2.22625 7.405176,-2.83208 0.0339,-0.0113 0.0602,-0.0169 0.079,-0.0169 0.0301,0 0.0452,0.0188 0.0452,0.0565 0,0.0226 0,0 0,0 l 0.899859,3.22713 c -0.14035,0.0519 -1.063714,-2.78605 -1.057642,-2.92463 1.58e-4,-0.004 -0.0024,-0.005 -0.0029,-0.005 -1.428869,0.67774 -6.759423,2.40051 -7.205267,2.82778 0.383822,0.19567 0.739422,0.40452 1.0668,0.62653 0.327377,0.22202 0.628414,0.45721 0.90311,0.70556 0.398874,0.35748 0.720607,0.54751 0.965199,0.57009 0.09031,0.0113 0.135467,0.0677 0.135467,0.16933 0,0.0677 -0.01317,0.14111 -0.03951,0.22013 -0.02634,0.079 -0.05833,0.11854 -0.09596,0.11854 -0.259644,0 -0.652873,-0.25965 -1.179688,-0.77894 -0.08655,-0.0865 -0.174977,-0.16933 -0.265288,-0.24835 -0.09031,-0.079 -0.182504,-0.1524 -0.276578,-0.22013 0.0075,0.0753 0.0094,0.14863 0.0056,0.22013 -0.0037,0.0715 -0.0094,0.13923 -0.01693,0.2032 -0.08279,0.57197 -0.523052,0.85795 -1.320799,0.85795 -0.06397,0 -0.122299,-0.002 -0.174978,-0.006 -0.04892,-0.004 -0.09219,-0.01 -0.129822,-0.0169 -0.07526,-0.0188 -0.112888,-0.13545 -0.112888,-0.34996 0,-0.11665 0.04139,-0.17498 0.124177,-0.17498 z"
         id="path6612"
         sodipodi:nodetypes="cccsccccccssccsscsccssscscccsccscc"
         style="fill:#ffffff" />
      <path
         d="m 91.133352,140.14167 q 0.01693,-0.0621 0.07338,-0.0847 0.06773,-0.0282 0.129823,0.0847 0.276577,0.53058 0.575732,0.52494 0.169334,-0.006 0.124178,0.31609 -0.02822,0.19191 -0.124178,0.19191 -0.417688,0 -0.682977,-0.63783 -0.02258,-0.0677 -0.0508,0.006 -0.141111,0.4572 -0.208844,0.58702 -0.06773,0.14111 -0.208844,0.14111 -0.327378,0.006 -0.6096,-0.254 -0.299155,0.33302 -0.80151,0.27094 -0.01129,0.30479 -0.05645,0.54186 -0.04515,0.23707 -0.124177,0.41205 -0.107245,0.254 -0.327378,0.42333 -0.666044,0.50235 -1.433688,0.48542 -0.95391,-0.0282 -1.196621,-0.79587 -0.06773,-0.21448 0.01129,-0.61524 0.07902,-0.40075 0.361244,-0.92004 0.02258,-0.0395 0.0508,-0.0395 0.03951,0 0.05644,0.0282 0.01693,0.0282 0,0.0621 -0.349955,0.65475 -0.287866,0.92004 0.1524,0.65476 1.061155,0.75636 0.389466,0.0452 0.886177,-0.14676 0.519288,-0.19756 0.756355,-0.55316 0.124177,-0.44026 -0.208845,-0.93697 -0.03387,-0.0565 -0.01693,-0.10725 l 0.129822,-0.46849 q 0.03387,-0.10724 0.09031,-0.0339 0.07338,0.12982 0.135467,0.31609 0.05644,0.18626 0.598311,0.10724 0.276577,-0.0452 0.423333,-0.32173 0.02258,-0.0339 0.03951,-0.0734 0.01693,-0.0452 0.03387,-0.0903 0.03387,-0.096 0.07338,-0.1016 0.03387,-0.006 0.06773,0.0282 0.03387,0.0282 0.02258,0.0734 l -0.05644,0.16369 q -0.02822,0.10724 0.05644,0.1524 0.220133,0.12418 0.4572,0.0621 0.07338,-0.0169 0.180622,-0.47414 z"
         id="path6614"
         style="fill:#ffffff" />
    </g>
  </g>
</svg>
